# xmcd
#
# Track frame offsets:
#	182
#	11502
#	19812
#	30385
#	43230
#	51760
#	74215
#	85225
#	93967
#	108537
#	121490
#	131800
#	143337
#	155867
#	174967
#	183460
#	194910
#	202625
#	211355
#	221737
#	231452
#	243775
#	257592
#	269415
#	280612
#
# Disc length: 3978
#
# Revision: 4
# Processed by: cddbd v1.5.1PL0 Copyright (c) Steve Scherf et al.
# Submitted via: CDex 1.40Beta8
# Normalized: r3:TDELIM( - )
#
DISCID=730f8819
DTITLE=Various Artist - Top Of The Pop - 4
DYEAR=1900
DGENRE=misc
TTITLE0=The Crystals - Da Doo Ron Ron
TTITLE1=Betty Everett - It's In His Kiss (Shoop Shoop Song)
TTITLE2=Shirelles - Will You Love Me Tomorrow
TTITLE3=Sam Cooke - You Send Me
TTITLE4=Tommy James and The Shondells - Mony Mony
TTITLE5=Surfairs - Wipe Out
TTITLE6=Little Richard - Long Tall Sally
TTITLE7=Fabian - Tiger
TTITLE8=Sam and Dave - Soul Man
TTITLE9=The Kingsmen - Louie Louie
TTITLE10=The Yardbirds - For Your Love
TTITLE11=Joe Tex - Show Me
TTITLE12=Rufus Thomas - Walking The Dog
TTITLE13=Joe South - Games People Play
TTITLE14=Kingston Trio - Tom Dooley
TTITLE15=Gene Vincent - Be Bop A Lula
TTITLE16=Fats Domino - Blueberry Hill
TTITLE17=Jerry Lee Lewis - What I'd Say
TTITLE18=Billy Kramer and The Dakota's - Do You Want To Know A Secret
TTITLE19=The Rainbows - Denise
TTITLE20=Wayne Fontana - Groovy Kind Of Love
TTITLE21=Van Morrison - Brown Eyed Girl
TTITLE22=Percy Sledge - My Special Prayer
TTITLE23=Jackie Wilson - Your Love Keeps Lifting Me Higher And Higher
TTITLE24=Judy Garland - Somewhere Over The Rainbow
EXTD=
EXTT0=
EXTT1=
EXTT2=
EXTT3=
EXTT4=
EXTT5=
EXTT6=
EXTT7=
EXTT8=
EXTT9=
EXTT10=
EXTT11=
EXTT12=
EXTT13=
EXTT14=
EXTT15=
EXTT16=
EXTT17=
EXTT18=
EXTT19=
EXTT20=
EXTT21=
EXTT22=
EXTT23=
EXTT24=
PLAYORDER=
